<svg height='300px' width='300px'  fill="#000000" xmlns="http://www.w3.org/2000/svg" xmlns:xlink="http://www.w3.org/1999/xlink" version="1.1" x="0px" y="0px" viewBox="0 0 100 100" enable-background="new 0 0 100 100" xml:space="preserve"><path d="M27.667,76.333l-4-4L12.314,83.686H5V95h11.314v-7.314L27.667,76.333z M8.771,91.229l0-3.771l3.771-0.001v3.771H8.771z   M41,79l-6,2L19,65l2-6L41,79z M38.334,73.666L93.667,25L95,5L75,6.333L26.333,61.667L38.334,73.666z M77,21.667L78.334,23l-38,38  L39,59.666L77,21.667z"></path><g><polygon points="34.282,49.581 40.817,42.151 21.666,23 23,21.667 42.065,40.731 48.659,33.234 25,6.333 5,5 6.333,25  "></polygon><polygon points="61,59.666 59.666,61 57.85,59.184 51.524,64.746 61.666,73.666 73.666,61.667 65.536,52.423 59.269,57.935  "></polygon><path d="M76.333,72.333l-4,4l11.353,11.353V95H95V83.686h-7.314L76.333,72.333z M91.229,91.229h-3.771v-3.771l3.771,0.001   L91.229,91.229z"></path><polygon points="78.999,59 59,79 65,81 81,65  "></polygon></g></svg>